<svg width="200" height="27" viewBox="0 0 177 27" fill="none" xmlns="http://www.w3.org/2000/svg">
<path d="M18.904 24.712C18.392 24.8827 17.8587 24.9893 17.304 25.032C16.8347 25.0747 16.312 25.0533 15.736 24.968C15.1813 24.8827 14.6267 24.68 14.072 24.36C13.4533 23.9973 12.9413 23.5707 12.536 23.08C12.152 22.5893 11.8427 22.1093 11.608 21.64C11.3733 21.1707 11.2027 20.744 11.096 20.36C11.0107 19.976 10.9573 19.6987 10.936 19.528C10.9147 19.6987 10.8507 19.976 10.744 20.36C10.6587 20.744 10.4987 21.1707 10.264 21.64C10.0293 22.1093 9.70933 22.5893 9.304 23.08C8.92 23.5707 8.41867 23.9973 7.8 24.36C7.24533 24.68 6.68 24.8827 6.104 24.968C5.54933 25.0533 5.03733 25.0747 4.568 25.032C4.01333 24.9893 3.48 24.8827 2.968 24.712C2.54133 24.5627 2.168 24.3707 1.848 24.136C1.54933 23.88 1.29333 23.6027 1.08 23.304C0.888 22.984 0.717333 22.6533 0.568 22.312C0.44 21.9493 0.344 21.5973 0.28 21.256C0.109333 20.4453 0.0453334 19.5813 0.0880001 18.664C0.152 17.1493 0.322667 15.7627 0.6 14.504C0.877333 13.224 1.21867 12.0613 1.624 11.016C2.05067 9.94933 2.50933 9 3 8.168C3.49067 7.31467 3.97067 6.54667 4.44 5.864C5.144 4.84 5.85867 4.06133 6.584 3.528C7.33067 2.99467 8.01333 2.61067 8.632 2.376C9.272 2.12 9.79467 1.98133 10.2 1.96C10.6267 1.91733 10.872 1.896 10.936 1.896C11 1.896 11.2347 1.91733 11.64 1.96C12.0667 1.98133 12.5893 2.12 13.208 2.376C13.848 2.61067 14.5413 2.99467 15.288 3.528C16.0347 4.06133 16.76 4.84 17.464 5.864C17.9333 6.54667 18.4027 7.31467 18.872 8.168C19.3627 9 19.8107 9.94933 20.216 11.016C20.6427 12.0613 20.9947 13.224 21.272 14.504C21.5493 15.7627 21.72 17.1493 21.784 18.664C21.848 19.5813 21.7947 20.4453 21.624 21.256C21.56 21.5973 21.4533 21.9493 21.304 22.312C21.176 22.6533 21.0053 22.984 20.792 23.304C20.5787 23.6027 20.312 23.88 19.992 24.136C19.6933 24.3707 19.3307 24.5627 18.904 24.712ZM11.064 13.192C10.7013 13.192 10.3813 13.3307 10.104 13.608C9.848 13.8853 9.74133 14.1947 9.784 14.536C9.82667 14.984 9.95467 15.2933 10.168 15.464C10.4027 15.6347 10.7013 15.72 11.064 15.72C11.4267 15.72 11.7253 15.6133 11.96 15.4C12.1947 15.1867 12.312 14.8987 12.312 14.536C12.312 14.1947 12.2053 13.8853 11.992 13.608C11.7787 13.3307 11.4693 13.192 11.064 13.192ZM32.33 14.824C33.2473 14.952 34.058 15.1227 34.762 15.336C35.466 15.5493 36.0633 15.7947 36.554 16.072C37.066 16.3493 37.482 16.648 37.802 16.968C38.1433 17.2667 38.41 17.5653 38.602 17.864C39.0713 18.568 39.306 19.3467 39.306 20.2C39.306 20.904 39.1993 21.5333 38.986 22.088C38.794 22.6213 38.5273 23.0907 38.186 23.496C37.866 23.88 37.4927 24.2107 37.066 24.488C36.6607 24.7653 36.2447 25 35.818 25.192C34.794 25.6187 33.6313 25.8853 32.33 25.992C31.1353 26.0347 30.09 26.0133 29.194 25.928C28.3193 25.8427 27.562 25.7147 26.922 25.544C26.282 25.3733 25.738 25.1707 25.29 24.936C24.8633 24.7013 24.522 24.456 24.266 24.2C23.6473 23.6027 23.338 22.9093 23.338 22.12C23.3167 21.5867 23.3807 21.1173 23.53 20.712C23.7007 20.3067 23.9247 19.9547 24.202 19.656C24.5007 19.3573 24.8313 19.112 25.194 18.92C25.5567 18.7067 25.93 18.536 26.314 18.408C27.21 18.1093 28.2447 17.9387 29.418 17.896C27.9673 17.5547 26.8687 17.1173 26.122 16.584C25.3753 16.0507 24.842 15.5387 24.522 15.048C24.138 14.472 23.946 13.864 23.946 13.224C23.9673 12.5413 24.106 11.944 24.362 11.432C24.618 10.92 24.938 10.4827 25.322 10.12C25.7273 9.736 26.1647 9.42667 26.634 9.192C27.1247 8.936 27.626 8.72267 28.138 8.552C29.3113 8.168 30.6447 7.976 32.138 7.976C33.6313 8.01867 34.8367 8.14667 35.754 8.36C36.6927 8.552 37.418 8.82933 37.93 9.192C38.442 9.53333 38.7833 9.93867 38.954 10.408C39.1247 10.856 39.1993 11.336 39.178 11.848C39.1567 12.3387 39.0393 12.7547 38.826 13.096C38.6127 13.4373 38.346 13.7253 38.026 13.96C37.706 14.1733 37.3433 14.3547 36.938 14.504C36.5327 14.632 36.1167 14.728 35.69 14.792C34.6873 14.9413 33.5673 14.952 32.33 14.824ZM49.9155 3.784C49.9582 4.25333 49.8942 4.712 49.7235 5.16C49.5742 5.608 49.3395 6.01333 49.0195 6.376C48.7208 6.71733 48.3475 7.00533 47.8995 7.24C47.4515 7.45333 46.9608 7.592 46.4275 7.656C45.8728 7.72 45.3502 7.688 44.8595 7.56C44.3902 7.41067 43.9635 7.19733 43.5795 6.92C43.1955 6.64267 42.8755 6.312 42.6195 5.928C42.3848 5.52267 42.2355 5.07467 42.1715 4.584C42.1288 4.11467 42.1822 3.66667 42.3315 3.24C42.5022 2.792 42.7475 2.39733 43.0675 2.056C43.3875 1.69333 43.7715 1.39467 44.2195 1.16C44.6675 0.925332 45.1582 0.775998 45.6915 0.711998C46.2248 0.647999 46.7262 0.690666 47.1955 0.839998C47.6862 0.967999 48.1235 1.17067 48.5075 1.448C48.8915 1.72533 49.2115 2.06667 49.4675 2.472C49.7235 2.87733 49.8728 3.31466 49.9155 3.784ZM51.2915 21.768C51.1208 22.728 50.7902 23.464 50.2995 23.976C49.8088 24.4667 49.3075 24.8293 48.7955 25.064C48.1768 25.32 47.5155 25.4587 46.8115 25.48C45.8942 25.5227 45.1475 25.3947 44.5715 25.096C43.9955 24.8187 43.5368 24.4987 43.1955 24.136C42.8115 23.7307 42.5022 23.2507 42.2675 22.696C41.8408 21.544 41.5848 20.36 41.4995 19.144C41.4355 17.9067 41.4568 16.776 41.5635 15.752C41.6702 14.5787 41.8622 13.4267 42.1395 12.296C42.3955 11.3147 42.7688 10.5787 43.2595 10.088C43.7715 9.576 44.2728 9.20267 44.7635 8.968C45.3395 8.712 45.9475 8.57333 46.5875 8.552C47.5688 8.50933 48.3582 8.68 48.9555 9.064C49.5742 9.42667 50.0648 9.85333 50.4275 10.344C50.8328 10.8987 51.1315 11.56 51.3235 12.328C51.4728 13.032 51.5902 13.8533 51.6755 14.792C51.7395 15.6027 51.7502 16.5947 51.7075 17.768C51.6862 18.92 51.5475 20.2533 51.2915 21.768ZM60.369 8.584C61.4997 8.47733 62.4277 8.54133 63.153 8.776C63.8783 8.98933 64.4437 9.256 64.849 9.576C65.2757 9.896 65.5743 10.216 65.745 10.536C65.9157 10.8347 66.0117 11.016 66.033 11.08C66.033 11.0587 66.0863 10.9093 66.193 10.632C66.321 10.3333 66.5237 10.0133 66.801 9.672C67.0783 9.33067 67.4517 9.032 67.921 8.776C68.3903 8.49867 68.977 8.36 69.681 8.36C70.2783 8.36 70.801 8.47733 71.249 8.712C71.697 8.94667 72.0917 9.256 72.433 9.64C72.7743 10.024 73.0623 10.4613 73.297 10.952C73.5317 11.4427 73.7237 11.944 73.873 12.456C74.2357 13.6507 74.4383 15.0053 74.481 16.52C74.545 17.736 74.5237 18.8027 74.417 19.72C74.3103 20.616 74.1503 21.3947 73.937 22.056C73.745 22.696 73.5103 23.24 73.233 23.688C72.9557 24.1147 72.6677 24.456 72.369 24.712C71.665 25.3307 70.8437 25.6187 69.905 25.576C69.329 25.5973 68.785 25.5013 68.273 25.288C67.8463 25.1173 67.4303 24.8293 67.025 24.424C66.6197 23.9973 66.3637 23.3787 66.257 22.568C66.0437 23.208 65.6597 23.752 65.105 24.2C64.6357 24.584 63.9743 24.9147 63.121 25.192C62.2677 25.4693 61.137 25.5227 59.729 25.352C58.577 25.224 57.553 24.8827 56.657 24.328C56.273 24.0933 55.889 23.7947 55.505 23.432C55.1423 23.0693 54.8117 22.6213 54.513 22.088C54.2357 21.5547 54.0117 20.936 53.841 20.232C53.6703 19.528 53.585 18.7173 53.585 17.8C53.5423 16.2 53.745 14.7493 54.193 13.448C54.385 12.8933 54.641 12.3493 54.961 11.816C55.281 11.2613 55.6863 10.76 56.177 10.312C56.6677 9.864 57.2543 9.49067 57.937 9.192C58.6197 8.872 59.4303 8.66933 60.369 8.584ZM64.625 16.104C64.2623 16.104 63.9423 16.2427 63.665 16.52C63.409 16.7973 63.3023 17.1067 63.345 17.448C63.3877 17.896 63.5157 18.2053 63.729 18.376C63.9637 18.5467 64.2623 18.632 64.625 18.632C64.9877 18.632 65.2863 18.5253 65.521 18.312C65.7557 18.0987 65.873 17.8107 65.873 17.448C65.873 17.1067 65.7663 16.7973 65.553 16.52C65.3397 16.2427 65.0303 16.104 64.625 16.104ZM97.5243 17.64C97.5669 18.8987 97.4496 20.04 97.1723 21.064C97.0443 21.512 96.8736 21.96 96.6603 22.408C96.4683 22.8347 96.2016 23.24 95.8603 23.624C95.5189 23.9867 95.1136 24.3067 94.6443 24.584C94.1963 24.8613 93.6523 25.0533 93.0123 25.16C93.0123 25.16 92.8843 25.1707 92.6283 25.192C92.3723 25.2133 92.0416 25.2027 91.6363 25.16C91.2523 25.1173 90.8256 25.032 90.3563 24.904C89.9083 24.7547 89.4816 24.52 89.0763 24.2C88.6709 23.8587 88.3189 23.4107 88.0203 22.856C87.7429 22.3013 87.5829 21.5973 87.5403 20.744C87.4549 19.912 87.3696 19.1653 87.2843 18.504C87.1776 17.9493 87.0603 17.4373 86.9323 16.968C86.8043 16.4773 86.6336 16.232 86.4203 16.232C86.4843 17.0213 86.5163 17.704 86.5163 18.28C86.5376 18.856 86.5376 19.3467 86.5163 19.752C86.4949 20.2213 86.4736 20.6267 86.4523 20.968C86.3456 21.7573 86.1003 22.4613 85.7163 23.08C85.3963 23.6133 84.9163 24.104 84.2763 24.552C83.6576 25 82.7936 25.2347 81.6843 25.256C81.1509 25.256 80.6709 25.192 80.2443 25.064C79.8389 24.9573 79.4763 24.7973 79.1562 24.584C78.8363 24.3707 78.5483 24.136 78.2923 23.88C78.0576 23.6027 77.8549 23.3253 77.6843 23.048C77.2789 22.3867 76.9909 21.64 76.8203 20.808C76.6709 20.232 76.5536 19.5707 76.4683 18.824C76.3829 18.184 76.3296 17.416 76.3083 16.52C76.2869 15.624 76.3296 14.6 76.4363 13.448C76.5429 12.552 76.7883 11.7413 77.1723 11.016C77.3216 10.7173 77.5136 10.4187 77.7483 10.12C77.9829 9.82133 78.2603 9.55467 78.5803 9.32C78.9003 9.064 79.2629 8.86133 79.6683 8.712C80.0949 8.54133 80.5749 8.43467 81.1083 8.392C82.0469 8.328 82.8149 8.37067 83.4123 8.52C84.0309 8.66933 84.5323 8.872 84.9163 9.128C85.3003 9.36267 85.5883 9.62933 85.7803 9.928C85.9936 10.2053 86.1749 10.472 86.3243 10.728C88.2443 9.68267 89.9936 9.192 91.5723 9.256C92.2336 9.27733 92.8949 9.42667 93.5563 9.704C94.2176 9.96 94.8149 10.408 95.3483 11.048C95.9029 11.6667 96.3723 12.5093 96.7563 13.576C97.1403 14.6427 97.3963 15.9973 97.5243 17.64Z" fill="#F1C74E"/>
<path d="M111.567 8.584C112.42 8.34933 113.188 8.25333 113.871 8.296C114.447 8.33867 114.98 8.53067 115.471 8.872C115.961 9.192 116.228 9.78933 116.271 10.664C116.292 11.5387 116.1 12.168 115.694 12.552C115.289 12.936 114.831 13.192 114.319 13.32C113.721 13.4693 113.039 13.4907 112.271 13.384C112.569 15.6027 112.633 17.5973 112.463 19.368C112.399 20.1147 112.271 20.8507 112.079 21.576C111.887 22.3013 111.609 22.952 111.247 23.528C110.905 24.104 110.457 24.5733 109.903 24.936C109.369 25.2987 108.708 25.4907 107.919 25.512C106.532 25.576 105.465 25.3413 104.719 24.808C103.993 24.2533 103.46 23.4427 103.119 22.376C102.799 21.3093 102.617 20.0187 102.575 18.504C102.532 16.9893 102.532 15.2827 102.575 13.384C101.764 13.6187 101.039 13.6933 100.399 13.608C100.121 13.5867 99.8438 13.5227 99.5665 13.416C99.3105 13.3093 99.0652 13.16 98.8305 12.968C98.6172 12.776 98.4358 12.5307 98.2865 12.232C98.1585 11.912 98.0838 11.5173 98.0625 11.048C98.0412 10.408 98.1798 9.896 98.4785 9.512C98.7985 9.128 99.1932 8.85067 99.6625 8.68C100.132 8.50933 100.633 8.424 101.167 8.424C101.7 8.40267 102.169 8.43467 102.575 8.52C102.532 7.92267 102.553 7.304 102.639 6.664C102.724 6.10933 102.884 5.49067 103.119 4.808C103.375 4.12533 103.769 3.44267 104.303 2.76C104.879 2.07733 105.593 1.53333 106.447 1.128C107.193 0.765333 108.132 0.519999 109.263 0.391998C110.415 0.263999 111.812 0.413332 113.455 0.839998C113.924 1.01067 114.351 1.224 114.735 1.48C115.055 1.71467 115.332 2.024 115.567 2.408C115.801 2.77067 115.887 3.22933 115.823 3.784C115.801 4.168 115.705 4.50933 115.535 4.808C115.385 5.064 115.161 5.29867 114.863 5.512C114.585 5.704 114.18 5.78933 113.647 5.768C113.348 5.768 113.081 5.81067 112.847 5.896C112.633 5.96 112.42 6.06667 112.207 6.216C111.993 6.36533 111.833 6.58933 111.727 6.888C111.684 6.99467 111.652 7.13333 111.631 7.304C111.567 7.624 111.545 8.05067 111.567 8.584Z" fill="black"/>
<path d="M133.155 21.288C132.814 21.9067 132.408 22.4507 131.939 22.92C131.491 23.368 131.054 23.7413 130.627 24.04C130.136 24.4027 129.635 24.6907 129.123 24.904C128.696 25.0747 128.28 25.2027 127.875 25.288C127.491 25.3947 127.15 25.4693 126.851 25.512C126.488 25.576 126.168 25.608 125.891 25.608C124.718 25.608 123.683 25.4907 122.787 25.256C121.912 25.0213 121.144 24.7227 120.483 24.36C119.822 23.976 119.256 23.5387 118.787 23.048C118.339 22.5573 117.976 22.056 117.699 21.544C116.995 20.3707 116.611 19.016 116.547 17.48C116.547 16.2427 116.675 15.176 116.931 14.28C117.208 13.3627 117.56 12.584 117.987 11.944C118.435 11.2827 118.936 10.7387 119.491 10.312C120.067 9.88533 120.643 9.544 121.219 9.288C122.584 8.69067 124.142 8.424 125.891 8.488C126.915 8.488 127.822 8.60533 128.611 8.84C129.4 9.07467 130.083 9.384 130.659 9.768C131.256 10.152 131.747 10.5893 132.131 11.08C132.536 11.5493 132.867 12.04 133.123 12.552C133.72 13.7253 134.062 15.0693 134.147 16.584C134.147 17.5867 134.051 18.472 133.859 19.24C133.688 20.008 133.454 20.6907 133.155 21.288ZM125.699 16.232C125.336 16.232 125.016 16.3707 124.739 16.648C124.483 16.9253 124.376 17.2347 124.419 17.576C124.462 18.024 124.59 18.3333 124.803 18.504C125.038 18.6747 125.336 18.76 125.699 18.76C126.062 18.76 126.36 18.6533 126.595 18.44C126.83 18.2267 126.947 17.9387 126.947 17.576C126.947 17.2347 126.84 16.9253 126.627 16.648C126.414 16.3707 126.104 16.232 125.699 16.232ZM151.905 21.288C151.564 21.9067 151.158 22.4507 150.689 22.92C150.241 23.368 149.804 23.7413 149.377 24.04C148.886 24.4027 148.385 24.6907 147.873 24.904C147.446 25.0747 147.03 25.2027 146.625 25.288C146.241 25.3947 145.9 25.4693 145.601 25.512C145.238 25.576 144.918 25.608 144.641 25.608C143.468 25.608 142.433 25.4907 141.537 25.256C140.662 25.0213 139.894 24.7227 139.233 24.36C138.572 23.976 138.006 23.5387 137.537 23.048C137.089 22.5573 136.726 22.056 136.449 21.544C135.745 20.3707 135.361 19.016 135.297 17.48C135.297 16.2427 135.425 15.176 135.681 14.28C135.958 13.3627 136.31 12.584 136.737 11.944C137.185 11.2827 137.686 10.7387 138.241 10.312C138.817 9.88533 139.393 9.544 139.969 9.288C141.334 8.69067 142.892 8.424 144.641 8.488C145.665 8.488 146.572 8.60533 147.361 8.84C148.15 9.07467 148.833 9.384 149.409 9.768C150.006 10.152 150.497 10.5893 150.881 11.08C151.286 11.5493 151.617 12.04 151.873 12.552C152.47 13.7253 152.812 15.0693 152.897 16.584C152.897 17.5867 152.801 18.472 152.609 19.24C152.438 20.008 152.204 20.6907 151.905 21.288ZM144.449 16.232C144.086 16.232 143.766 16.3707 143.489 16.648C143.233 16.9253 143.126 17.2347 143.169 17.576C143.212 18.024 143.34 18.3333 143.553 18.504C143.788 18.6747 144.086 18.76 144.449 18.76C144.812 18.76 145.11 18.6533 145.345 18.44C145.58 18.2267 145.697 17.9387 145.697 17.576C145.697 17.2347 145.59 16.9253 145.377 16.648C145.164 16.3707 144.854 16.232 144.449 16.232ZM175.423 24.04C174.868 24.616 174.271 24.9467 173.631 25.032C173.012 25.1387 172.426 25.128 171.871 25C171.316 24.8933 170.858 24.744 170.495 24.552C170.132 24.36 169.951 24.264 169.951 24.264C169.119 24.6907 168.202 25.0213 167.199 25.256C166.196 25.4907 165.172 25.6293 164.127 25.672C163.103 25.7147 162.1 25.6507 161.119 25.48C160.138 25.3093 159.263 25.0213 158.495 24.616C157.983 24.3173 157.503 23.9653 157.055 23.56C156.671 23.1973 156.276 22.76 155.871 22.248C155.487 21.7147 155.21 21.0853 155.039 20.36C154.868 19.6987 154.751 18.9733 154.687 18.184C154.644 17.3733 154.687 16.552 154.815 15.72C154.943 14.888 155.178 14.088 155.519 13.32C155.86 12.5307 156.351 11.8373 156.991 11.24C157.972 10.3227 158.996 9.71467 160.063 9.416C161.151 9.11733 162.154 8.968 163.071 8.968C164.138 8.98933 165.183 9.14933 166.207 9.448C165.972 7.848 165.94 6.41867 166.111 5.16C166.175 4.62667 166.292 4.104 166.463 3.592C166.634 3.05867 166.868 2.58933 167.167 2.184C167.487 1.77866 167.882 1.45867 168.351 1.224C168.842 0.967999 169.428 0.839998 170.111 0.839998C170.708 0.839998 171.242 0.925332 171.711 1.096C172.18 1.26667 172.596 1.49067 172.959 1.768C173.322 2.04533 173.631 2.36533 173.887 2.728C174.164 3.06933 174.388 3.42133 174.559 3.784C174.964 4.63733 175.231 5.61867 175.359 6.728C175.487 7.90133 175.551 9.11733 175.551 10.376C175.551 11.464 175.476 12.68 175.327 14.024C175.199 15.3467 174.954 16.68 174.591 18.024C175.21 18.3227 175.668 18.728 175.967 19.24C176.287 19.752 176.468 20.296 176.511 20.872C176.554 21.448 176.479 22.024 176.287 22.6C176.095 23.1547 175.807 23.6347 175.423 24.04ZM166.047 16.104C165.684 16.104 165.364 16.2427 165.087 16.52C164.831 16.7973 164.724 17.1067 164.767 17.448C164.81 17.896 164.938 18.2053 165.151 18.376C165.386 18.5467 165.684 18.632 166.047 18.632C166.41 18.632 166.708 18.5253 166.943 18.312C167.178 18.0987 167.295 17.8107 167.295 17.448C167.295 17.1067 167.188 16.7973 166.975 16.52C166.762 16.2427 166.452 16.104 166.047 16.104Z" fill="#767676"/>
</svg>
